<?xml version="1.0" encoding="UTF-8"?>
<svg width="40px" height="40px" viewBox="0 0 40 40" version="1.1" xmlns="http://www.w3.org/2000/svg" xmlns:xlink="http://www.w3.org/1999/xlink">
    <title>Combined Shape</title>
    <defs>
        <linearGradient x1="50%" y1="-33.9626736%" x2="50%" y2="138.91059%" id="linearGradient-1">
            <stop stop-color="#4EC0C4" offset="0%"></stop>
            <stop stop-color="#5E7FE8" offset="100%"></stop>
        </linearGradient>
    </defs>
    <g id="Page-1" stroke="none" stroke-width="1" fill="none" fill-rule="evenodd">
        <g id="HP1-Copy" transform="translate(-712.000000, -528.000000)" fill="url(#linearGradient-1)">
            <g id="Group-39" transform="translate(121.000000, 162.000000)">
                <g id="Group-33" transform="translate(50.000000, 364.000000)">
                    <g id="Group-8" transform="translate(541.000000, 0.000000)">
                        <path d="M20,2 C31.045695,2 40,10.954305 40,22 C40,33.045695 31.045695,42 20,42 C8.954305,42 0,33.045695 0,22 C0,10.954305 8.954305,2 20,2 Z M20.3703704,25.912037 C19.7183675,25.912037 19.1898148,26.4405898 19.1898148,27.0925926 C19.1898148,27.7445954 19.7183675,28.2731481 20.3703704,28.2731481 C21.0223732,28.2731481 21.5509259,27.7445954 21.5509259,27.0925926 C21.5509259,26.4405898 21.0223732,25.912037 20.3703704,25.912037 Z M16.8287037,22.7638889 C16.1767009,22.7638889 15.6481481,23.2924416 15.6481481,23.9444444 C15.6481481,24.5964473 16.1767009,25.125 16.8287037,25.125 C17.4807065,25.125 18.0092593,24.5964473 18.0092593,23.9444444 C18.0092593,23.2924416 17.4807065,22.7638889 16.8287037,22.7638889 Z M20.3703704,22.7638889 C19.7183675,22.7638889 19.1898148,23.2924416 19.1898148,23.9444444 C19.1898148,24.5964473 19.7183675,25.125 20.3703704,25.125 C21.0223732,25.125 21.5509259,24.5964473 21.5509259,23.9444444 C21.5509259,23.2924416 21.0223732,22.7638889 20.3703704,22.7638889 Z M23.912037,22.7638889 C23.2600342,22.7638889 22.7314815,23.2924416 22.7314815,23.9444444 C22.7314815,24.5964473 23.2600342,25.125 23.912037,25.125 C24.5640399,25.125 25.0925926,24.5964473 25.0925926,23.9444444 C25.0925926,23.2924416 24.5640399,22.7638889 23.912037,22.7638889 Z M16.8287037,19.6157407 C16.1767009,19.6157407 15.6481481,20.1442935 15.6481481,20.7962963 C15.6481481,21.4482991 16.1767009,21.9768519 16.8287037,21.9768519 C17.4807065,21.9768519 18.0092593,21.4482991 18.0092593,20.7962963 C18.0092593,20.1442935 17.4807065,19.6157407 16.8287037,19.6157407 Z M20.3703704,19.6157407 C19.7183675,19.6157407 19.1898148,20.1442935 19.1898148,20.7962963 C19.1898148,21.4482991 19.7183675,21.9768519 20.3703704,21.9768519 C21.0223732,21.9768519 21.5509259,21.4482991 21.5509259,20.7962963 C21.5509259,20.1442935 21.0223732,19.6157407 20.3703704,19.6157407 Z M23.912037,19.6157407 C23.2600342,19.6157407 22.7314815,20.1442935 22.7314815,20.7962963 C22.7314815,21.4482991 23.2600342,21.9768519 23.912037,21.9768519 C24.5640399,21.9768519 25.0925926,21.4482991 25.0925926,20.7962963 C25.0925926,20.1442935 24.5640399,19.6157407 23.912037,19.6157407 Z M16.8287037,16.4675926 C16.1767009,16.4675926 15.6481481,16.9961453 15.6481481,17.6481481 C15.6481481,18.300151 16.1767009,18.8287037 16.8287037,18.8287037 C17.4807065,18.8287037 18.0092593,18.300151 18.0092593,17.6481481 C18.0092593,16.9961453 17.4807065,16.4675926 16.8287037,16.4675926 Z M20.3703704,16.4675926 C19.7183675,16.4675926 19.1898148,16.9961453 19.1898148,17.6481481 C19.1898148,18.300151 19.7183675,18.8287037 20.3703704,18.8287037 C21.0223732,18.8287037 21.5509259,18.300151 21.5509259,17.6481481 C21.5509259,16.9961453 21.0223732,16.4675926 20.3703704,16.4675926 Z M23.912037,16.4675926 C23.2600342,16.4675926 22.7314815,16.9961453 22.7314815,17.6481481 C22.7314815,18.300151 23.2600342,18.8287037 23.912037,18.8287037 C24.5640399,18.8287037 25.0925926,18.300151 25.0925926,17.6481481 C25.0925926,16.9961453 24.5640399,16.4675926 23.912037,16.4675926 Z" id="Combined-Shape"></path>
                    </g>
                </g>
            </g>
        </g>
    </g>
</svg>
