<?xml version="1.0" encoding="UTF-8"?>
<svg width="40px" height="40px" viewBox="0 0 40 40" version="1.1" xmlns="http://www.w3.org/2000/svg" xmlns:xlink="http://www.w3.org/1999/xlink">
    <title>Combined Shape</title>
    <defs>
        <linearGradient x1="50%" y1="-33.9626736%" x2="50%" y2="138.91059%" id="linearGradient-1">
            <stop stop-color="#E9AD34" offset="0%"></stop>
            <stop stop-color="#E96E34" offset="100%"></stop>
        </linearGradient>
    </defs>
    <g id="Page-1" stroke="none" stroke-width="1" fill="none" fill-rule="evenodd">
        <g id="HP1-Copy" transform="translate(-442.000000, -264.000000)" fill="url(#linearGradient-1)">
            <g id="Group-39" transform="translate(121.000000, 162.000000)">
                <g id="Group-36" transform="translate(50.000000, 101.700000)">
                    <g id="Group-34" transform="translate(271.000000, 0.300000)">
                        <path d="M20,0 C31.045695,0 40,8.954305 40,20 C40,31.045695 31.045695,40 20,40 C8.954305,40 0,31.045695 0,20 C0,8.954305 8.954305,0 20,0 Z M20.0925926,20.7407407 C16.8206995,20.7407407 14.0740741,22.7382865 14.0740741,25.3703704 C14.0740741,25.8817451 14.4886252,26.2962963 15,26.2962963 L15,26.2962963 L25.1851852,26.2962963 C25.69656,26.2962963 26.1111111,25.8817451 26.1111111,25.3703704 C26.1111111,22.7382865 23.3644857,20.7407407 20.0925926,20.7407407 Z M20.0925926,13.3333333 C18.3027809,13.3333333 16.8518519,14.7842624 16.8518519,16.5740741 C16.8518519,18.3638858 18.3027809,19.8148148 20.0925926,19.8148148 C21.8824043,19.8148148 23.3333333,18.3638858 23.3333333,16.5740741 C23.3333333,14.7842624 21.8824043,13.3333333 20.0925926,13.3333333 Z" id="Combined-Shape"></path>
                    </g>
                </g>
            </g>
        </g>
    </g>
</svg>
